<svg width="10" height="11" viewBox="0 0 10 11" fill="none" xmlns="http://www.w3.org/2000/svg">
<path d="M0.940527 10.0161C0.940527 10.0161 0.152344 10.0161 0.152344 9.22788C0.152344 8.4397 0.940527 6.07515 4.88145 6.07515C8.82236 6.07515 9.61055 8.4397 9.61055 9.22788C9.61055 10.0161 8.82236 10.0161 8.82236 10.0161H0.940527ZM4.88145 5.28696C5.50856 5.28696 6.11 5.03784 6.55344 4.5944C6.99688 4.15096 7.246 3.54953 7.246 2.92241C7.246 2.29529 6.99688 1.69386 6.55344 1.25042C6.11 0.806983 5.50856 0.557861 4.88145 0.557861C4.25433 0.557861 3.6529 0.806983 3.20946 1.25042C2.76602 1.69386 2.51689 2.29529 2.51689 2.92241C2.51689 3.54953 2.76602 4.15096 3.20946 4.5944C3.6529 5.03784 4.25433 5.28696 4.88145 5.28696Z" fill="#E21F4D"/>
</svg>
