<svg width="12" height="12" viewBox="0 0 12 12" fill="none" xmlns="http://www.w3.org/2000/svg">
<path d="M8.89914 7.36033C9.57672 6.43525 9.88003 5.28844 9.74838 4.14933C9.61673 3.01023 9.05984 1.96283 8.18911 1.21669C7.31837 0.470553 6.19802 0.0806984 5.0522 0.125123C3.90637 0.169547 2.81956 0.644975 2.00922 1.45629C1.19887 2.26761 0.724736 3.35497 0.681678 4.50085C0.63862 5.64674 1.02981 6.76662 1.77699 7.63646C2.52416 8.5063 3.57222 9.06195 4.71149 9.19224C5.85075 9.32253 6.9972 9.01785 7.92147 8.33916C7.94247 8.36716 7.96405 8.394 7.98914 8.41967L10.6841 11.1147C10.8154 11.246 10.9935 11.3198 11.1792 11.3199C11.3649 11.3199 11.543 11.2462 11.6743 11.115C11.8057 10.9837 11.8795 10.8056 11.8796 10.6199C11.8796 10.4342 11.8059 10.2561 11.6746 10.1247L8.97964 7.42975C8.95462 7.4044 8.92771 7.38158 8.89914 7.36033ZM9.07997 4.67C9.07997 5.17559 8.98039 5.67623 8.78691 6.14333C8.59343 6.61043 8.30984 7.03485 7.95233 7.39236C7.59483 7.74986 7.1704 8.03345 6.7033 8.22693C6.2362 8.42041 5.73556 8.52 5.22997 8.52C4.72438 8.52 4.22374 8.42041 3.75664 8.22693C3.28954 8.03345 2.86511 7.74986 2.50761 7.39236C2.1501 7.03485 1.86651 6.61043 1.67303 6.14333C1.47955 5.67623 1.37997 5.17559 1.37997 4.67C1.37997 3.64892 1.78559 2.66965 2.50761 1.94764C3.22962 1.22562 4.20889 0.819998 5.22997 0.819998C6.25105 0.819998 7.23032 1.22562 7.95233 1.94764C8.67435 2.66965 9.07997 3.64892 9.07997 4.67Z" fill="#E21F4D"/>
</svg>
